<svg width="15" height="31" viewBox="0 0 15 31" fill="none" xmlns="http://www.w3.org/2000/svg">
<path d="M6.5 24.2574C6.5 24.8097 6.94772 25.2574 7.5 25.2574C8.05228 25.2574 8.5 24.8097 8.5 24.2574L6.5 24.2574ZM8.20711 6.03545C7.81658 5.64492 7.18342 5.64492 6.79289 6.03545L0.428933 12.3994C0.0384083 12.7899 0.0384083 13.4231 0.428933 13.8136C0.819457 14.2041 1.45262 14.2041 1.84315 13.8136L7.5 8.15677L13.1569 13.8136C13.5474 14.2041 14.1805 14.2041 14.5711 13.8136C14.9616 13.4231 14.9616 12.7899 14.5711 12.3994L8.20711 6.03545ZM7.5 24.2574L8.5 24.2574L8.5 6.74255L7.5 6.74255L6.5 6.74255L6.5 24.2574L7.5 24.2574Z" fill="white"/>
</svg>
