<svg width="100" height="14" viewBox="0 0 100 14" fill="none" xmlns="http://www.w3.org/2000/svg">
<path d="M8.95334 1.134V3.055H5.79134V13H3.41134V3.055H0.249341V1.134H8.95334ZM20.3799 13L17.7619 8.376H16.6399V13H14.2599V1.134H18.7139C19.6319 1.134 20.4139 1.29833 21.0599 1.627C21.7059 1.94433 22.1875 2.38067 22.5049 2.936C22.8335 3.48 22.9979 4.092 22.9979 4.772C22.9979 5.554 22.7712 6.26233 22.3179 6.897C21.8645 7.52033 21.1902 7.951 20.2949 8.189L23.1339 13H20.3799ZM16.6399 6.591H18.6289C19.2749 6.591 19.7565 6.438 20.0739 6.132C20.3912 5.81467 20.5499 5.37833 20.5499 4.823C20.5499 4.279 20.3912 3.85967 20.0739 3.565C19.7565 3.259 19.2749 3.106 18.6289 3.106H16.6399V6.591ZM31.1005 1.134V13H28.7205V1.134H31.1005ZM39.4019 3.055V6.03H43.3969V7.917H39.4019V11.062H43.9069V13H37.0219V1.117H43.9069V3.055H39.4019ZM59.7888 13H57.4088L52.0198 4.857V13H49.6398V1.117H52.0198L57.4088 9.277V1.117H59.7888V13ZM73.7858 1.134V3.055H70.6238V13H68.2438V3.055H65.0818V1.134H73.7858ZM81.4723 3.055V6.03H85.4673V7.917H81.4723V11.062H85.9773V13H79.0923V1.117H85.9773V3.055H81.4723ZM95.8071 13.119C94.9798 13.119 94.2318 12.9773 93.5631 12.694C92.9058 12.4107 92.3845 12.0027 91.9991 11.47C91.6138 10.9373 91.4155 10.3083 91.4041 9.583H93.9541C93.9881 10.0703 94.1581 10.4557 94.4641 10.739C94.7815 11.0223 95.2121 11.164 95.7561 11.164C96.3115 11.164 96.7478 11.0337 97.0651 10.773C97.3825 10.501 97.5411 10.1497 97.5411 9.719C97.5411 9.36767 97.4335 9.07867 97.2181 8.852C97.0028 8.62533 96.7308 8.44967 96.4021 8.325C96.0848 8.189 95.6428 8.04167 95.0761 7.883C94.3055 7.65633 93.6765 7.43533 93.1891 7.22C92.7131 6.99333 92.2995 6.659 91.9481 6.217C91.6081 5.76367 91.4381 5.163 91.4381 4.415C91.4381 3.71233 91.6138 3.10033 91.9651 2.579C92.3165 2.05767 92.8095 1.661 93.4441 1.389C94.0788 1.10567 94.8041 0.964 95.6201 0.964C96.8441 0.964 97.8358 1.26433 98.5951 1.865C99.3658 2.45433 99.7908 3.28167 99.8701 4.347H97.2521C97.2295 3.939 97.0538 3.60467 96.7251 3.344C96.4078 3.072 95.9828 2.936 95.4501 2.936C94.9855 2.936 94.6115 3.055 94.3281 3.293C94.0561 3.531 93.9201 3.87667 93.9201 4.33C93.9201 4.64733 94.0221 4.91367 94.2261 5.129C94.4415 5.333 94.7021 5.503 95.0081 5.639C95.3255 5.76367 95.7675 5.911 96.3341 6.081C97.1048 6.30767 97.7338 6.53433 98.2211 6.761C98.7085 6.98767 99.1278 7.32767 99.4791 7.781C99.8305 8.23433 100.006 8.82933 100.006 9.566C100.006 10.2007 99.8418 10.79 99.5131 11.334C99.1845 11.878 98.7028 12.3143 98.0681 12.643C97.4335 12.9603 96.6798 13.119 95.8071 13.119Z" fill="white"/>
</svg>
