<svg width="100" height="14" fill="none" xmlns="http://www.w3.org/2000/svg"><path d="M8.953 1.134v1.921H5.791V13h-2.38V3.055H.25V1.134h8.704zM20.38 13l-2.618-4.624H16.64V13h-2.38V1.134h4.454c.918 0 1.7.164 2.346.493.646.317 1.128.754 1.445 1.309.329.544.493 1.156.493 1.836a3.57 3.57 0 01-.68 2.125c-.454.623-1.128 1.054-2.023 1.292L23.134 13H20.38zm-3.74-6.409h1.989c.646 0 1.127-.153 1.445-.459.317-.317.476-.754.476-1.309 0-.544-.159-.963-.476-1.258-.318-.306-.8-.459-1.445-.459h-1.99v3.485zM31.1 1.134V13h-2.38V1.134h2.38zm8.302 1.921V6.03h3.995v1.887h-3.995v3.145h4.505V13h-6.885V1.117h6.885v1.938h-4.505zM59.789 13h-2.38l-5.39-8.143V13h-2.38V1.117h2.38l5.39 8.16v-8.16h2.38V13zM73.786 1.134v1.921h-3.162V13h-2.38V3.055h-3.162V1.134h8.704zm7.686 1.921V6.03h3.995v1.887h-3.995v3.145h4.505V13h-6.885V1.117h6.885v1.938h-4.505zm14.335 10.064c-.827 0-1.575-.142-2.244-.425-.657-.283-1.178-.691-1.564-1.224-.385-.533-.584-1.162-.595-1.887h2.55c.034.487.204.873.51 1.156.317.283.748.425 1.292.425.555 0 .992-.13 1.31-.391.316-.272.475-.623.475-1.054 0-.351-.108-.64-.323-.867a2.162 2.162 0 00-.816-.527 11.17 11.17 0 00-1.326-.442c-.77-.227-1.4-.448-1.887-.663a3.498 3.498 0 01-1.24-1.003c-.34-.453-.51-1.054-.51-1.802 0-.703.175-1.315.526-1.836.352-.521.844-.918 1.48-1.19.634-.283 1.36-.425 2.175-.425 1.224 0 2.216.3 2.975.901.77.59 1.196 1.417 1.275 2.482h-2.618a1.324 1.324 0 00-.527-1.003c-.317-.272-.742-.408-1.275-.408-.465 0-.838.119-1.122.357-.272.238-.408.584-.408 1.037 0 .317.102.584.306.799.216.204.476.374.782.51.318.125.76.272 1.326.442.77.227 1.4.453 1.887.68.487.227.907.567 1.258 1.02.352.453.527 1.048.527 1.785 0 .635-.164 1.224-.493 1.768-.329.544-.81.98-1.445 1.309-.635.317-1.388.476-2.26.476z" fill="#fff"/></svg>